<?xml version="1.0" standalone="no"?>
<!DOCTYPE svg PUBLIC "-//W3C//DTD SVG 20010904//EN"
 "http://www.w3.org/TR/2001/REC-SVG-20010904/DTD/svg10.dtd">
<svg version="1.0" xmlns="http://www.w3.org/2000/svg"
 width="300.000000pt" height="300.000000pt" viewBox="0 0 300.000000 300.000000"
 preserveAspectRatio="xMidYMid meet">
<metadata>
Created by potrace 1.14, written by Peter Selinger 2001-2017
</metadata>
<g transform="translate(0.000000,300.000000) scale(0.100000,-0.100000)"
fill="#000000" stroke="none">
<path d="M1408 2844 c-2 -1 -28 -5 -58 -9 -30 -3 -62 -8 -70 -10 -8 -2 -29 -7
-47 -10 -48 -8 -168 -52 -259 -96 -220 -106 -447 -333 -567 -567 -30 -58 -87
-197 -93 -226 -2 -10 -8 -33 -13 -50 -22 -69 -41 -205 -45 -316 -6 -183 40
-445 98 -555 9 -16 16 -34 16 -39 0 -15 45 -106 52 -106 5 0 8 -5 8 -11 0 -29
131 -208 220 -299 146 -149 399 -290 590 -329 30 -6 66 -14 80 -18 39 -10 338
-12 373 -2 37 10 183 47 210 54 10 2 69 29 130 59 153 75 287 179 401 307 89
101 218 323 236 404 1 6 5 15 10 20 11 13 49 157 56 209 3 22 7 43 9 46 13 21
27 320 15 320 -3 0 -5 12 -5 26 1 14 -2 47 -6 72 -5 26 -11 65 -15 87 -15 98
-93 298 -160 415 -69 118 -219 290 -319 365 -22 17 -46 36 -53 43 -7 6 -17 12
-22 12 -5 0 -15 6 -22 13 -24 23 -191 105 -268 130 -70 23 -124 36 -225 53
-39 7 -252 14 -257 8z"/>
</g>
</svg>
